<svg xmlns="http://www.w3.org/2000/svg" width="315" height="120" viewBox="0 0 315 120">
  <defs>
    <filter id="shadow" x="-20%" y="-20%" width="140%" height="150%">
      <feDropShadow dx="0" dy="8" stdDeviation="3" flood-color="#0a7a34" flood-opacity=".38"/>
    </filter>
  </defs>
  <g filter="url(#shadow)">
    <path d="M29 29c66-18 154-23 244-2 14 3 23 17 19 31l-8 30c-4 14-19 22-33 18-74-20-145-18-215 2-15 4-30-6-32-21L0 57c-2-13 9-25 29-28z" fill="#0fae58"/>
    <path d="M35 21c68-16 152-20 236-1 9 2 15 11 13 20l-8 31c-2 9-12 15-21 12-72-18-142-16-211 3-10 3-20-3-22-13l-6-31c-2-10 6-19 19-21z" fill="#ffffff"/>
    <text x="29" y="53" font-family="Arial Rounded MT Bold, Microsoft YaHei, sans-serif" font-size="38" font-weight="900" fill="#19a85a" stroke="#0b7e37" stroke-width="1.4">BrainSync</text>
    <text x="54" y="94" font-family="Microsoft YaHei, sans-serif" font-size="36" font-weight="900" fill="#ffffff" stroke="#0b7e37" stroke-width="8" paint-order="stroke">欢乐房间</text>
    <text x="55" y="94" font-family="Microsoft YaHei, sans-serif" font-size="36" font-weight="900" fill="#ffffff">欢乐房间</text>
    <path d="M279 14c14 3 23 13 24 28" stroke="#ffd43b" stroke-width="7" stroke-linecap="round" fill="none"/>
    <path d="M296 18v37" stroke="#ffd43b" stroke-width="7" stroke-linecap="round"/>
    <circle cx="285" cy="57" r="10" fill="#ffd43b"/>
  </g>
</svg>
