<svg xmlns="http://www.w3.org/2000/svg" width="360" height="240" viewBox="0 0 360 240" role="img" aria-label="剧照题">
  <rect width="360" height="240" rx="22" fill="#fff4ef"/>
  <path d="M38 190c49-50 95-75 139-75s92 25 145 75v28H38Z" fill="#f0b46c"/>
  <path d="M181 43c34 0 62 28 62 62 0 23-13 44-32 54l16 40h-92l16-40c-19-10-32-31-32-54 0-34 28-62 62-62Z" fill="#111827"/>
  <path d="M137 67c-25-10-48-4-70 17 28 3 50 13 66 29M225 67c25-10 48-4 70 17-28 3-50 13-66 29" fill="#111827"/>
  <path d="M73 52 300 194" stroke="#111827" stroke-width="12" stroke-linecap="round"/>
</svg>
