<svg xmlns="http://www.w3.org/2000/svg" width="360" height="240" viewBox="0 0 360 240" role="img" aria-label="剪影题">
  <rect width="360" height="240" rx="22" fill="#eef8ff"/>
  <path d="M67 172c58-50 117-50 176 0 20 17 38 21 54 12-11 27-36 41-76 41H111c-41 0-65-15-44-53Z" fill="#111827"/>
  <path d="M180 42c30 0 54 25 54 56 0 19-9 36-24 46l16 45h-92l16-45c-14-10-24-27-24-46 0-31 24-56 54-56Z" fill="#111827"/>
  <path d="M132 70c-26-5-45 5-58 29 27-8 49-4 66 13M228 70c26-5 45 5 58 29-27-8-49-4-66 13" fill="#111827"/>
  <circle cx="259" cy="57" r="18" fill="#cbeffd"/>
</svg>
